<mxfile host="Electron" modified="2023-05-14T08:11:25.408Z" agent="Mozilla/5.0 (Windows NT 10.0; Win64; x64) AppleWebKit/537.36 (KHTML, like Gecko) draw.io/21.2.8 Chrome/112.0.5615.165 Electron/24.2.0 Safari/537.36" etag="3JWg4g9DttFtt-4FMdBj" version="21.2.8" type="device">
  <diagram name="Page-1" id="IovuPlnuYOxv74p460Sw">
    <mxGraphModel dx="2268" dy="820" grid="1" gridSize="10" guides="1" tooltips="1" connect="1" arrows="1" fold="1" page="1" pageScale="1" pageWidth="850" pageHeight="1100" math="0" shadow="0">
      <root>
        <mxCell id="0" />
        <mxCell id="1" parent="0" />
        <mxCell id="6MIaR3WKCf1RQzaY556U-82" value="" style="rounded=0;whiteSpace=wrap;html=1;fillColor=#00CC00;strokeWidth=2;strokeColor=#009900;" parent="1" vertex="1">
          <mxGeometry x="457.5" y="750" width="25" height="100" as="geometry" />
        </mxCell>
        <mxCell id="ki2tDZn7keGU7olpMhpC-15" value="" style="rounded=0;whiteSpace=wrap;html=1;fillColor=#00CC00;strokeWidth=2;strokeColor=#009900;" parent="1" vertex="1">
          <mxGeometry x="-318.5" y="350" width="25" height="570" as="geometry" />
        </mxCell>
        <mxCell id="lFbvkqLxVyMuqr9iLAXJ-2" value="&lt;font color=&quot;#009900&quot; style=&quot;&quot;&gt;&lt;b style=&quot;&quot;&gt;&lt;br&gt;&lt;/b&gt;&lt;/font&gt;" style="rounded=0;whiteSpace=wrap;html=1;strokeWidth=1;fillColor=none;strokeColor=#009900;dashed=1;dashPattern=8 8;" parent="1" vertex="1">
          <mxGeometry x="-380" y="760" width="890" height="70" as="geometry" />
        </mxCell>
        <mxCell id="tjZRGbeKw34wrT0C9eUE-2" value="&lt;i style=&quot;border-color: var(--border-color); color: rgb(0, 153, 0);&quot;&gt;&lt;font style=&quot;border-color: var(--border-color); font-size: 15px;&quot;&gt;&amp;lt;&amp;lt;HttpServlet&amp;gt;&amp;gt;&lt;/font&gt;&lt;/i&gt;&lt;font color=&quot;#009900&quot; style=&quot;&quot;&gt;&lt;b style=&quot;&quot;&gt;&lt;br&gt;&lt;font style=&quot;font-size: 18px;&quot;&gt;auctionsFromIds&lt;/font&gt;&lt;br&gt;&lt;/b&gt;&lt;/font&gt;" style="rounded=0;whiteSpace=wrap;html=1;strokeWidth=3;fillColor=default;strokeColor=#009900;" parent="1" vertex="1">
          <mxGeometry x="-18" y="220" width="150" height="60" as="geometry" />
        </mxCell>
        <mxCell id="tjZRGbeKw34wrT0C9eUE-3" value="&lt;font color=&quot;#009900&quot; style=&quot;&quot;&gt;&lt;i style=&quot;&quot;&gt;&lt;font style=&quot;font-size: 15px;&quot;&gt;&amp;lt;&amp;lt;Class&amp;gt;&amp;gt;&lt;/font&gt;&lt;/i&gt;&lt;br&gt;&lt;span style=&quot;font-size: 18px;&quot;&gt;&lt;b&gt;Auction&lt;/b&gt;&lt;/span&gt;&lt;br&gt;&lt;/font&gt;" style="rounded=0;whiteSpace=wrap;html=1;strokeWidth=3;fillColor=default;strokeColor=#009900;" parent="1" vertex="1">
          <mxGeometry x="231" y="221" width="150" height="60" as="geometry" />
        </mxCell>
        <mxCell id="tjZRGbeKw34wrT0C9eUE-4" value="" style="endArrow=none;html=1;rounded=0;entryX=0.5;entryY=1;entryDx=0;entryDy=0;strokeWidth=2;fillColor=#d5e8d4;strokeColor=#009900;dashed=1;" parent="1" source="tjZRGbeKw34wrT0C9eUE-6" target="tjZRGbeKw34wrT0C9eUE-2" edge="1">
          <mxGeometry width="50" height="50" relative="1" as="geometry">
            <mxPoint x="57" y="670" as="sourcePoint" />
            <mxPoint x="302" y="440" as="targetPoint" />
          </mxGeometry>
        </mxCell>
        <mxCell id="tjZRGbeKw34wrT0C9eUE-5" value="" style="endArrow=none;html=1;rounded=0;entryX=0.5;entryY=1;entryDx=0;entryDy=0;strokeWidth=2;fillColor=#d5e8d4;strokeColor=#009900;dashed=1;" parent="1" source="tjZRGbeKw34wrT0C9eUE-10" edge="1">
          <mxGeometry width="50" height="50" relative="1" as="geometry">
            <mxPoint x="292" y="671" as="sourcePoint" />
            <mxPoint x="292" y="281" as="targetPoint" />
          </mxGeometry>
        </mxCell>
        <mxCell id="tjZRGbeKw34wrT0C9eUE-7" value="" style="endArrow=none;html=1;rounded=0;strokeWidth=2;fillColor=#d5e8d4;strokeColor=#009900;dashed=1;entryX=0.516;entryY=1.009;entryDx=0;entryDy=0;entryPerimeter=0;" parent="1" target="tjZRGbeKw34wrT0C9eUE-6" edge="1">
          <mxGeometry width="50" height="50" relative="1" as="geometry">
            <mxPoint x="57" y="920" as="sourcePoint" />
            <mxPoint x="57" y="949" as="targetPoint" />
          </mxGeometry>
        </mxCell>
        <mxCell id="tjZRGbeKw34wrT0C9eUE-6" value="" style="rounded=0;whiteSpace=wrap;html=1;fillColor=#FFFFFF;strokeWidth=2;strokeColor=#009900;" parent="1" vertex="1">
          <mxGeometry x="44.5" y="540" width="25" height="140" as="geometry" />
        </mxCell>
        <mxCell id="tjZRGbeKw34wrT0C9eUE-9" value="" style="endArrow=none;html=1;rounded=0;strokeWidth=2;strokeColor=#009900;startArrow=classic;startFill=1;exitX=-0.051;exitY=0.286;exitDx=0;exitDy=0;exitPerimeter=0;" parent="1" source="tjZRGbeKw34wrT0C9eUE-10" edge="1">
          <mxGeometry width="50" height="50" relative="1" as="geometry">
            <mxPoint x="290" y="610" as="sourcePoint" />
            <mxPoint x="70" y="610" as="targetPoint" />
          </mxGeometry>
        </mxCell>
        <mxCell id="tjZRGbeKw34wrT0C9eUE-11" value="" style="endArrow=none;html=1;rounded=0;strokeWidth=2;fillColor=#d5e8d4;strokeColor=#009900;dashed=1;entryX=0.5;entryY=1;entryDx=0;entryDy=0;" parent="1" target="tjZRGbeKw34wrT0C9eUE-10" edge="1">
          <mxGeometry width="50" height="50" relative="1" as="geometry">
            <mxPoint x="292" y="930" as="sourcePoint" />
            <mxPoint x="291" y="680" as="targetPoint" />
          </mxGeometry>
        </mxCell>
        <mxCell id="tjZRGbeKw34wrT0C9eUE-10" value="" style="rounded=0;whiteSpace=wrap;html=1;fillColor=#FFFFFF;strokeWidth=2;strokeColor=#009900;" parent="1" vertex="1">
          <mxGeometry x="279.5" y="590" width="25" height="70" as="geometry" />
        </mxCell>
        <mxCell id="tjZRGbeKw34wrT0C9eUE-20" value="" style="endArrow=none;html=1;rounded=0;exitX=0;exitY=0.25;exitDx=0;exitDy=0;strokeWidth=2;strokeColor=#009900;startArrow=classic;startFill=1;" parent="1" edge="1">
          <mxGeometry width="50" height="50" relative="1" as="geometry">
            <mxPoint x="-483.5" y="369" as="sourcePoint" />
            <mxPoint x="-570" y="369" as="targetPoint" />
          </mxGeometry>
        </mxCell>
        <mxCell id="tjZRGbeKw34wrT0C9eUE-21" value="&lt;font style=&quot;font-size: 14px;&quot;&gt;&lt;i&gt;load&lt;/i&gt;&lt;/font&gt;" style="text;html=1;align=center;verticalAlign=middle;resizable=0;points=[];autosize=1;strokeColor=none;fillColor=none;" parent="1" vertex="1">
          <mxGeometry x="-555" y="344" width="50" height="30" as="geometry" />
        </mxCell>
        <mxCell id="tjZRGbeKw34wrT0C9eUE-22" value="&lt;font style=&quot;font-size: 14px;&quot;&gt;&lt;i&gt;&amp;nbsp;AJAX GET&lt;/i&gt;&lt;br&gt;&lt;b&gt;/auctionsFromIds&lt;/b&gt;&lt;br&gt;auctionIds&lt;br&gt;&lt;/font&gt;" style="text;html=1;align=center;verticalAlign=middle;resizable=0;points=[];autosize=1;strokeColor=none;fillColor=none;" parent="1" vertex="1">
          <mxGeometry x="-271.5" y="512" width="140" height="60" as="geometry" />
        </mxCell>
        <mxCell id="tjZRGbeKw34wrT0C9eUE-34" value="" style="group" parent="1" vertex="1" connectable="0">
          <mxGeometry x="47.5" y="910" width="20" height="20" as="geometry" />
        </mxCell>
        <mxCell id="tjZRGbeKw34wrT0C9eUE-32" value="" style="endArrow=none;html=1;rounded=0;strokeWidth=2;fillColor=#d5e8d4;strokeColor=#009900;" parent="tjZRGbeKw34wrT0C9eUE-34" edge="1">
          <mxGeometry width="50" height="50" relative="1" as="geometry">
            <mxPoint y="20" as="sourcePoint" />
            <mxPoint x="20" as="targetPoint" />
          </mxGeometry>
        </mxCell>
        <mxCell id="tjZRGbeKw34wrT0C9eUE-33" value="" style="endArrow=none;html=1;rounded=0;strokeWidth=2;fillColor=#d5e8d4;strokeColor=#009900;" parent="tjZRGbeKw34wrT0C9eUE-34" edge="1">
          <mxGeometry width="50" height="50" relative="1" as="geometry">
            <mxPoint x="20" y="20" as="sourcePoint" />
            <mxPoint as="targetPoint" />
          </mxGeometry>
        </mxCell>
        <mxCell id="ki2tDZn7keGU7olpMhpC-1" value="&lt;i style=&quot;border-color: var(--border-color);&quot;&gt;&lt;font style=&quot;border-color: var(--border-color); font-size: 15px;&quot;&gt;&amp;lt;&amp;lt;page load&amp;gt;&amp;gt;&lt;/font&gt;&lt;/i&gt;&lt;span style=&quot;font-size: 18px;&quot;&gt;&lt;br&gt;home.html&lt;br&gt;&lt;b style=&quot;&quot;&gt;buy.js&lt;/b&gt;&lt;br&gt;&lt;/span&gt;" style="rounded=0;whiteSpace=wrap;html=1;strokeWidth=3;fillColor=#00cc00;strokeColor=#009900;fillStyle=auto;fontColor=#ffffff;" parent="1" vertex="1">
          <mxGeometry x="-546" y="200" width="150" height="80" as="geometry" />
        </mxCell>
        <mxCell id="ki2tDZn7keGU7olpMhpC-2" value="" style="endArrow=none;html=1;rounded=0;entryX=0.5;entryY=1;entryDx=0;entryDy=0;strokeWidth=2;fillColor=#d5e8d4;strokeColor=#009900;dashed=1;" parent="1" source="ki2tDZn7keGU7olpMhpC-4" target="ki2tDZn7keGU7olpMhpC-1" edge="1">
          <mxGeometry width="50" height="50" relative="1" as="geometry">
            <mxPoint x="-471" y="670" as="sourcePoint" />
            <mxPoint x="-226" y="440" as="targetPoint" />
          </mxGeometry>
        </mxCell>
        <mxCell id="ki2tDZn7keGU7olpMhpC-4" value="" style="rounded=0;whiteSpace=wrap;html=1;fillColor=#00CC00;strokeWidth=2;strokeColor=#009900;" parent="1" vertex="1">
          <mxGeometry x="-483.5" y="340" width="25" height="580" as="geometry" />
        </mxCell>
        <mxCell id="ki2tDZn7keGU7olpMhpC-5" value="" style="endArrow=none;html=1;rounded=0;strokeWidth=2;strokeColor=#009900;startArrow=classic;startFill=1;" parent="1" edge="1">
          <mxGeometry width="50" height="50" relative="1" as="geometry">
            <mxPoint x="40" y="570" as="sourcePoint" />
            <mxPoint x="-290" y="570" as="targetPoint" />
          </mxGeometry>
        </mxCell>
        <mxCell id="ki2tDZn7keGU7olpMhpC-13" value="&lt;i style=&quot;border-color: var(--border-color);&quot;&gt;&lt;font color=&quot;#ffffff&quot; style=&quot;border-color: var(--border-color); font-size: 15px;&quot;&gt;&amp;lt;&amp;lt;table handler&amp;gt;&amp;gt;&lt;/font&gt;&lt;/i&gt;&lt;font style=&quot;&quot; color=&quot;#ffffff&quot;&gt;&lt;br&gt;&lt;span style=&quot;font-size: 18px;&quot;&gt;&lt;b&gt;openAuctions&lt;br&gt;WithSearch&lt;/b&gt;&lt;/span&gt;&lt;br&gt;&lt;/font&gt;" style="rounded=0;whiteSpace=wrap;html=1;strokeWidth=3;fillColor=#00CC00;strokeColor=#009900;" parent="1" vertex="1">
          <mxGeometry x="-381" y="220" width="150" height="60" as="geometry" />
        </mxCell>
        <mxCell id="ki2tDZn7keGU7olpMhpC-14" value="" style="endArrow=none;html=1;rounded=0;entryX=0.5;entryY=1;entryDx=0;entryDy=0;strokeWidth=2;fillColor=#d5e8d4;strokeColor=#009900;dashed=1;" parent="1" source="ki2tDZn7keGU7olpMhpC-15" target="ki2tDZn7keGU7olpMhpC-13" edge="1">
          <mxGeometry width="50" height="50" relative="1" as="geometry">
            <mxPoint x="-306" y="670" as="sourcePoint" />
            <mxPoint x="-61" y="440" as="targetPoint" />
          </mxGeometry>
        </mxCell>
        <mxCell id="ki2tDZn7keGU7olpMhpC-16" value="" style="endArrow=none;html=1;rounded=0;strokeWidth=2;strokeColor=#009900;startArrow=classic;startFill=1;" parent="1" edge="1">
          <mxGeometry width="50" height="50" relative="1" as="geometry">
            <mxPoint x="-320" y="383" as="sourcePoint" />
            <mxPoint x="-458" y="383" as="targetPoint" />
          </mxGeometry>
        </mxCell>
        <mxCell id="ki2tDZn7keGU7olpMhpC-17" value="&lt;span style=&quot;font-size: 14px;&quot;&gt;show()&lt;/span&gt;" style="text;html=1;align=center;verticalAlign=middle;resizable=0;points=[];autosize=1;strokeColor=none;fillColor=none;" parent="1" vertex="1">
          <mxGeometry x="-426" y="357" width="70" height="30" as="geometry" />
        </mxCell>
        <mxCell id="6MIaR3WKCf1RQzaY556U-5" value="" style="endArrow=none;html=1;rounded=0;strokeWidth=2;strokeColor=#009900;startArrow=classic;startFill=1;" parent="1" edge="1">
          <mxGeometry width="50" height="50" relative="1" as="geometry">
            <mxPoint x="70" y="650" as="sourcePoint" />
            <mxPoint x="280" y="650" as="targetPoint" />
          </mxGeometry>
        </mxCell>
        <mxCell id="6MIaR3WKCf1RQzaY556U-21" value="&lt;font color=&quot;#009900&quot; style=&quot;&quot;&gt;&lt;span style=&quot;font-size: 15px;&quot;&gt;&lt;i&gt;server side&lt;/i&gt;&lt;/span&gt;&lt;br&gt;&lt;/font&gt;" style="rounded=0;whiteSpace=wrap;html=1;strokeWidth=3;fillColor=default;strokeColor=#009900;" parent="1" vertex="1">
          <mxGeometry x="460" y="191" width="85" height="20" as="geometry" />
        </mxCell>
        <mxCell id="6MIaR3WKCf1RQzaY556U-22" value="&lt;font color=&quot;#ffffff&quot;&gt;&lt;span style=&quot;font-size: 15px;&quot;&gt;&lt;i&gt;client side&lt;/i&gt;&lt;/span&gt;&lt;/font&gt;" style="rounded=0;whiteSpace=wrap;html=1;strokeWidth=3;fillColor=#00CC00;strokeColor=#009900;" parent="1" vertex="1">
          <mxGeometry x="460" y="161" width="85" height="20" as="geometry" />
        </mxCell>
        <mxCell id="6MIaR3WKCf1RQzaY556U-26" value="" style="endArrow=none;html=1;rounded=0;strokeWidth=2;strokeColor=#009900;startArrow=classic;startFill=1;dashed=1;" parent="1" edge="1">
          <mxGeometry width="50" height="50" relative="1" as="geometry">
            <mxPoint x="-290" y="670" as="sourcePoint" />
            <mxPoint x="40" y="670" as="targetPoint" />
          </mxGeometry>
        </mxCell>
        <mxCell id="6MIaR3WKCf1RQzaY556U-27" value="&lt;font style=&quot;&quot;&gt;&lt;span style=&quot;font-size: 14px;&quot;&gt;auctions&lt;/span&gt;&lt;br&gt;&lt;/font&gt;" style="text;html=1;align=center;verticalAlign=middle;resizable=0;points=[];autosize=1;strokeColor=none;fillColor=none;" parent="1" vertex="1">
          <mxGeometry x="-246.75" y="645" width="80" height="30" as="geometry" />
        </mxCell>
        <mxCell id="6MIaR3WKCf1RQzaY556U-59" value="" style="endArrow=none;html=1;rounded=0;strokeWidth=2;strokeColor=#009900;startArrow=classic;startFill=1;entryX=0.101;entryY=0.714;entryDx=0;entryDy=0;entryPerimeter=0;" parent="1" edge="1" target="lFbvkqLxVyMuqr9iLAXJ-2">
          <mxGeometry width="50" height="50" relative="1" as="geometry">
            <mxPoint x="457" y="810" as="sourcePoint" />
            <mxPoint x="-282.5" y="810" as="targetPoint" />
          </mxGeometry>
        </mxCell>
        <mxCell id="6MIaR3WKCf1RQzaY556U-61" value="" style="endArrow=none;html=1;rounded=0;strokeWidth=2;strokeColor=#009900;startArrow=classic;startFill=1;" parent="1" edge="1">
          <mxGeometry width="50" height="50" relative="1" as="geometry">
            <mxPoint x="-290" y="730" as="sourcePoint" />
            <mxPoint x="-292.5" y="700" as="targetPoint" />
            <Array as="points">
              <mxPoint x="-260" y="730" />
              <mxPoint x="-260" y="700" />
            </Array>
          </mxGeometry>
        </mxCell>
        <mxCell id="6MIaR3WKCf1RQzaY556U-62" value="&lt;font style=&quot;&quot;&gt;&lt;span style=&quot;font-size: 14px;&quot;&gt;update(auctions)&lt;/span&gt;&lt;br&gt;&lt;/font&gt;" style="text;html=1;align=center;verticalAlign=middle;resizable=0;points=[];autosize=1;strokeColor=none;fillColor=none;" parent="1" vertex="1">
          <mxGeometry x="-265" y="700" width="130" height="30" as="geometry" />
        </mxCell>
        <mxCell id="6MIaR3WKCf1RQzaY556U-76" value="&lt;i style=&quot;border-color: var(--border-color);&quot;&gt;&lt;font color=&quot;#ffffff&quot; style=&quot;border-color: var(--border-color); font-size: 15px;&quot;&gt;&amp;lt;&amp;lt;global object&amp;gt;&amp;gt;&lt;br&gt;&lt;/font&gt;&lt;/i&gt;&lt;span style=&quot;font-size: 18px;&quot;&gt;&lt;font color=&quot;#ffffff&quot;&gt;&lt;b&gt;sessionStorage&lt;/b&gt;&lt;/font&gt;&lt;br&gt;&lt;/span&gt;" style="rounded=0;whiteSpace=wrap;html=1;strokeWidth=3;fillColor=#00CC00;strokeColor=#009900;" parent="1" vertex="1">
          <mxGeometry x="395" y="221" width="150" height="61" as="geometry" />
        </mxCell>
        <mxCell id="6MIaR3WKCf1RQzaY556U-77" value="" style="endArrow=none;html=1;rounded=0;entryX=0.5;entryY=1;entryDx=0;entryDy=0;strokeWidth=2;fillColor=#d5e8d4;strokeColor=#009900;dashed=1;exitX=0.5;exitY=0;exitDx=0;exitDy=0;" parent="1" source="6MIaR3WKCf1RQzaY556U-82" target="6MIaR3WKCf1RQzaY556U-76" edge="1">
          <mxGeometry width="50" height="50" relative="1" as="geometry">
            <mxPoint x="470" y="581" as="sourcePoint" />
            <mxPoint x="715" y="442" as="targetPoint" />
          </mxGeometry>
        </mxCell>
        <mxCell id="6MIaR3WKCf1RQzaY556U-78" value="" style="endArrow=none;html=1;rounded=0;strokeWidth=2;fillColor=#d5e8d4;strokeColor=#009900;dashed=1;entryX=0.5;entryY=1;entryDx=0;entryDy=0;" parent="1" target="6MIaR3WKCf1RQzaY556U-82" edge="1">
          <mxGeometry width="50" height="50" relative="1" as="geometry">
            <mxPoint x="470" y="930" as="sourcePoint" />
            <mxPoint x="470" y="701" as="targetPoint" />
          </mxGeometry>
        </mxCell>
        <mxCell id="ImflFla28foKCNnRYuBp-1" value="&lt;font style=&quot;&quot;&gt;&lt;i style=&quot;&quot;&gt;&lt;font style=&quot;font-size: 12px;&quot;&gt;&amp;lt;&amp;lt;static&amp;gt;&amp;gt;&lt;/font&gt;&lt;/i&gt;&lt;br&gt;&lt;span style=&quot;font-size: 14px;&quot;&gt;getAuctionsFromIds(idList)&lt;/span&gt;&lt;br&gt;&lt;/font&gt;" style="text;html=1;align=center;verticalAlign=middle;resizable=0;points=[];autosize=1;strokeColor=none;fillColor=none;" parent="1" vertex="1">
          <mxGeometry x="76.5" y="569" width="190" height="40" as="geometry" />
        </mxCell>
        <mxCell id="lFbvkqLxVyMuqr9iLAXJ-1" value="&lt;font style=&quot;&quot;&gt;&lt;span style=&quot;font-size: 14px;&quot;&gt;setItem(auctionId,&lt;br&gt;JSON.stringify(auction))&lt;/span&gt;&lt;br&gt;&lt;/font&gt;" style="text;html=1;align=center;verticalAlign=middle;resizable=0;points=[];autosize=1;strokeColor=none;fillColor=none;" parent="1" vertex="1">
          <mxGeometry x="-276.5" y="765" width="170" height="50" as="geometry" />
        </mxCell>
        <mxCell id="lFbvkqLxVyMuqr9iLAXJ-6" value="" style="group" parent="1" vertex="1" connectable="0">
          <mxGeometry x="-381" y="758.25" width="45" height="25.75" as="geometry" />
        </mxCell>
        <mxCell id="lFbvkqLxVyMuqr9iLAXJ-4" value="" style="shape=card;whiteSpace=wrap;html=1;rotation=90;flipH=1;strokeColor=none;fillColor=#009900;size=10;" parent="lFbvkqLxVyMuqr9iLAXJ-6" vertex="1">
          <mxGeometry x="10" y="-9.25" width="25" height="45" as="geometry" />
        </mxCell>
        <mxCell id="lFbvkqLxVyMuqr9iLAXJ-5" value="&lt;font color=&quot;#ffffff&quot;&gt;&lt;b&gt;loop&lt;/b&gt;&lt;/font&gt;" style="text;html=1;strokeColor=none;fillColor=none;align=center;verticalAlign=middle;whiteSpace=wrap;rounded=0;" parent="lFbvkqLxVyMuqr9iLAXJ-6" vertex="1">
          <mxGeometry width="40" height="22.5" as="geometry" />
        </mxCell>
        <mxCell id="yVtIRECN5XNrVDqgM0KA-1" value="&lt;i style=&quot;border-color: var(--border-color);&quot;&gt;&lt;font color=&quot;#ffffff&quot; style=&quot;border-color: var(--border-color); font-size: 15px;&quot;&gt;&amp;lt;&amp;lt;global object&amp;gt;&amp;gt;&lt;br&gt;&lt;/font&gt;&lt;/i&gt;&lt;span style=&quot;font-size: 18px;&quot;&gt;&lt;font color=&quot;#ffffff&quot;&gt;&lt;b&gt;localStorage&lt;/b&gt;&lt;/font&gt;&lt;br&gt;&lt;/span&gt;" style="rounded=0;whiteSpace=wrap;html=1;strokeWidth=3;fillColor=#00CC00;strokeColor=#009900;" vertex="1" parent="1">
          <mxGeometry x="-180" y="220" width="150" height="61" as="geometry" />
        </mxCell>
        <mxCell id="yVtIRECN5XNrVDqgM0KA-3" value="" style="rounded=0;whiteSpace=wrap;html=1;fillColor=#00CC00;strokeWidth=2;strokeColor=#009900;" vertex="1" parent="1">
          <mxGeometry x="-117.5" y="387" width="25" height="100" as="geometry" />
        </mxCell>
        <mxCell id="yVtIRECN5XNrVDqgM0KA-4" value="" style="endArrow=none;html=1;rounded=0;entryX=0.5;entryY=1;entryDx=0;entryDy=0;strokeWidth=2;fillColor=#d5e8d4;strokeColor=#009900;dashed=1;exitX=0.5;exitY=0;exitDx=0;exitDy=0;" edge="1" parent="1" source="yVtIRECN5XNrVDqgM0KA-3">
          <mxGeometry width="50" height="50" relative="1" as="geometry">
            <mxPoint x="-105" y="579" as="sourcePoint" />
            <mxPoint x="-105" y="280" as="targetPoint" />
          </mxGeometry>
        </mxCell>
        <mxCell id="yVtIRECN5XNrVDqgM0KA-5" value="" style="endArrow=none;html=1;rounded=0;strokeWidth=2;fillColor=#d5e8d4;strokeColor=#009900;dashed=1;entryX=0.5;entryY=1;entryDx=0;entryDy=0;" edge="1" parent="1" target="yVtIRECN5XNrVDqgM0KA-3">
          <mxGeometry width="50" height="50" relative="1" as="geometry">
            <mxPoint x="-105" y="920" as="sourcePoint" />
            <mxPoint x="-105" y="699" as="targetPoint" />
          </mxGeometry>
        </mxCell>
        <mxCell id="yVtIRECN5XNrVDqgM0KA-6" value="&lt;font style=&quot;&quot;&gt;&lt;span style=&quot;font-size: 14px;&quot;&gt;getItem(&quot;recVisited&lt;br&gt;_username&quot;)&lt;/span&gt;&lt;br&gt;&lt;/font&gt;" style="text;html=1;align=center;verticalAlign=middle;resizable=0;points=[];autosize=1;strokeColor=none;fillColor=none;" vertex="1" parent="1">
          <mxGeometry x="-271.5" y="364" width="140" height="50" as="geometry" />
        </mxCell>
        <mxCell id="yVtIRECN5XNrVDqgM0KA-7" value="" style="endArrow=none;html=1;rounded=0;strokeWidth=2;strokeColor=#009900;startArrow=classic;startFill=1;" edge="1" parent="1">
          <mxGeometry width="50" height="50" relative="1" as="geometry">
            <mxPoint x="-119" y="410" as="sourcePoint" />
            <mxPoint x="-292.5" y="410" as="targetPoint" />
          </mxGeometry>
        </mxCell>
        <mxCell id="yVtIRECN5XNrVDqgM0KA-8" value="" style="endArrow=none;html=1;rounded=0;strokeWidth=2;strokeColor=#009900;startArrow=classic;startFill=1;" edge="1" parent="1">
          <mxGeometry width="50" height="50" relative="1" as="geometry">
            <mxPoint x="-292.5" y="460" as="sourcePoint" />
            <mxPoint x="-119" y="460" as="targetPoint" />
          </mxGeometry>
        </mxCell>
        <mxCell id="yVtIRECN5XNrVDqgM0KA-9" value="&lt;font style=&quot;&quot;&gt;&lt;span style=&quot;font-size: 14px;&quot;&gt;auctionIds&lt;/span&gt;&lt;br&gt;&lt;/font&gt;" style="text;html=1;align=center;verticalAlign=middle;resizable=0;points=[];autosize=1;strokeColor=none;fillColor=none;" vertex="1" parent="1">
          <mxGeometry x="-246.5" y="436" width="90" height="30" as="geometry" />
        </mxCell>
        <mxCell id="yVtIRECN5XNrVDqgM0KA-10" value="" style="endArrow=none;html=1;rounded=0;strokeWidth=2;strokeColor=#009900;startArrow=classic;startFill=1;" edge="1" parent="1">
          <mxGeometry width="50" height="50" relative="1" as="geometry">
            <mxPoint x="-291" y="897" as="sourcePoint" />
            <mxPoint x="-293.5" y="867" as="targetPoint" />
            <Array as="points">
              <mxPoint x="-261" y="897" />
              <mxPoint x="-261" y="867" />
            </Array>
          </mxGeometry>
        </mxCell>
        <mxCell id="yVtIRECN5XNrVDqgM0KA-11" value="&lt;font style=&quot;&quot;&gt;&lt;span style=&quot;font-size: 14px;&quot;&gt;autoclick&lt;/span&gt;&lt;br&gt;&lt;/font&gt;" style="text;html=1;align=center;verticalAlign=middle;resizable=0;points=[];autosize=1;strokeColor=none;fillColor=none;" vertex="1" parent="1">
          <mxGeometry x="-265" y="867" width="80" height="30" as="geometry" />
        </mxCell>
      </root>
    </mxGraphModel>
  </diagram>
</mxfile>
